<?xml version="1.0" encoding="UTF-8" standalone="no"?>
<svg
   width="49.094mm"
   height="9.988mm"
   version="1.1"
   viewBox="0 0 49.094 9.988"
   id="svg39"
   sodipodi:docname="doyensec-logo.svg"
   inkscape:version="1.2.1 (9c6d41e4, 2022-07-14)"
   xmlns:inkscape="http://www.inkscape.org/namespaces/inkscape"
   xmlns:sodipodi="http://sodipodi.sourceforge.net/DTD/sodipodi-0.dtd"
   xmlns="http://www.w3.org/2000/svg"
   xmlns:svg="http://www.w3.org/2000/svg">
  <defs
     id="defs43" />
  <sodipodi:namedview
     id="namedview41"
     pagecolor="#ffffff"
     bordercolor="#666666"
     borderopacity="1.0"
     inkscape:showpageshadow="2"
     inkscape:pageopacity="0.0"
     inkscape:pagecheckerboard="0"
     inkscape:deskcolor="#d1d1d1"
     inkscape:document-units="mm"
     showgrid="false"
     inkscape:zoom="6.2516687"
     inkscape:cx="93.255101"
     inkscape:cy="19.354832"
     inkscape:window-width="1625"
     inkscape:window-height="658"
     inkscape:window-x="0"
     inkscape:window-y="25"
     inkscape:window-maximized="0"
     inkscape:current-layer="svg39" />
  <g
     transform="translate(-79.018 -62.286)"
     id="g37">
    <g
       transform="matrix(.26458 0 0 .26458 78.847 62.032)"
       id="g35">
      <g
         fill="#9a9999"
         id="g25">
        <path
           d="m67.423 19.091c0 6.074-3.754 9.638-10.138 9.638h-5.899v-19.244h5.899c6.333 0 10.138 3.53 10.138 9.606m-12.179-5.94v11.936h1.918c4.186 0 6.352-2.199 6.352-5.974 0-3.79-2.191-5.962-6.352-5.962z"
           id="path9"
           style="fill:#ffffff" />
        <path
           d="m88.365 19.142c0 5.735-4.085 9.923-9.533 9.923-5.474 0-9.507-4.188-9.507-9.923 0-5.782 4.033-9.995 9.507-9.995 5.449-1e-3 9.533 4.212 9.533 9.995m-15.159 0c0 3.665 2.319 6.287 5.626 6.287 3.303 0 5.622-2.622 5.622-6.287 0-3.716-2.319-6.359-5.622-6.359-3.306-1e-3 -5.626 2.643-5.626 6.359"
           id="path11"
           style="fill:#ffffff" />
        <polygon
           points="100.98 9.486 105.44 9.486 98.711 20.844 98.711 28.729 94.877 28.729 94.877 20.924 88.096 9.486 92.556 9.486 96.768 16.918"
           id="polygon13"
           style="fill:#ffffff" />
        <polygon
           points="133.38 20.214 133.38 9.486 137.24 9.486 137.24 29.064 137.13 29.064 126.19 17.991 126.19 28.729 122.33 28.729 122.33 9.146 122.43 9.146"
           id="polygon15"
           style="fill:#ffffff" />
        <polygon
           points="110.9 17.286 117.27 17.286 117.27 20.661 110.9 20.661 110.9 25.086 119.57 25.086 119.57 28.729 110.9 28.729 107.39 28.729 107.39 9.485 119.37 9.485 119.37 13.123 110.9 13.123"
           id="polygon17"
           style="fill:#ffffff" />
        <path
           d="m153.05 11.159-1.99 3.302c-1.136-0.947-2.551-1.679-4.516-1.679-1.642 0-2.648 0.681-2.648 2.094 0 1.1 0.707 1.651 3.479 2.201 4.792 1.049 6.306 2.853 6.306 5.81 0 3.691-2.646 6.178-7.012 6.178-2.825 0-5.348-0.915-7.187-2.562l2.093-3.326c1.235 1.361 3.327 2.254 5.219 2.254 1.945 0 3.053-0.762 3.053-2.174 0-1.129-0.832-1.754-3.579-2.305-4.793-1.076-6.229-3.062-6.229-5.889 0-3.46 2.544-5.916 6.528-5.916 2.649-1e-3 4.943 0.781 6.483 2.012"
           id="path19"
           style="fill:#ffffff" />
        <path
           d="m186.18 12.023-2.421 2.904c-0.982-1.204-2.396-2.146-4.288-2.146-3.404 0-5.626 2.644-5.626 6.309 0 3.667 2.222 6.338 5.626 6.338 1.917 0 3.354-0.973 4.338-2.202l2.396 2.905c-1.842 2.098-4.035 2.933-6.733 2.933-5.573 0-9.504-4.267-9.504-9.974 0-5.68 3.931-9.944 9.504-9.944 2.927 0 4.918 0.962 6.708 2.877"
           id="path21"
           style="fill:#ffffff" />
        <polygon
           points="168.09 13.123 168.09 9.486 156.11 9.486 156.11 28.729 159.61 28.729 168.29 28.729 168.29 25.086 159.61 25.086 159.61 20.663 165.99 20.663 165.99 17.286 159.61 17.286 159.61 13.123"
           id="polygon23"
           style="fill:#ffffff" />
      </g>
      <polygon
         points="11.088 7.028 11.099 7.028 26.158 7.028 36.334 19.832 26.158 32.64 21.996 32.64 29.49 19.832 24.713 11.662 19.283 11.662 25.135 19.832 12.551 37.275 30.175 37.275 40.382 19.832 30.175 2.389 8.387 2.389 0.648 2.389 13.919 19.832 7.073 27.997 13.803 27.997 18.583 19.832"
         fill="#343434"
         id="polygon27" />
      <polygon
         points="19.501 19.832 11.796 5.979 11.809 5.979 28.628 5.979 36.334 19.832 28.628 33.688 23.011 33.688 30.717 19.832 25.803 10.995 20.221 10.995 25.135 19.832 17.429 33.688 14.64 38.708 31.417 38.708 41.915 19.832 31.417 0.958 9.019 0.958 3.426 0.958 6.215 5.979 13.919 19.832 9.007 28.667 14.587 28.667"
         fill="#9a6634"
         id="polygon29" />
      <polygon
         points="11.809 5.979 28.628 5.979 36.332 19.832 41.913 19.832 31.417 0.958 9.019 0.958 3.426 0.958 6.215 5.979 13.917 19.832 19.5 19.832 11.796 5.979"
         fill="#f4983a"
         id="polygon31" />
      <polygon
         points="30.715 19.832 25.803 10.995 20.221 10.995 25.132 19.832"
         fill="#f49739"
         id="polygon33" />
    </g>
  </g>
</svg>
